<svg id="svg" version="1.1" xmlns="http://www.w3.org/2000/svg" xmlns:xlink="http://www.w3.org/1999/xlink" width="400" height="400" viewBox="0, 0, 400,400"><g id="svgg"><path id="path0" d="M127.025 63.946 C 126.799 64.312,129.922 64.829,133.966 65.094 C 185.279 68.465,233.135 105.901,249.215 155.251 C 252.155 164.275,252.387 163.270,246.731 166.016 C 218.611 179.668,217.708 220.944,245.236 234.412 C 250.969 237.216,250.854 236.859,248.319 243.969 C 233.604 285.240,195.926 318.768,153.711 328.156 C 147.321 329.577,148.154 330.294,155.273 329.501 C 202.409 324.251,245.002 291.083,262.884 245.703 L 265.347 239.453 269.626 238.915 C 293.578 235.902,308.373 212.950,301.828 188.960 C 300.923 185.644,300.839 184.165,301.486 182.956 C 306.136 174.267,295.371 162.383,285.732 165.564 C 283.591 166.271,282.495 166.194,280.032 165.165 C 278.355 164.464,274.890 163.464,272.331 162.942 L 267.679 161.993 265.094 154.239 C 249.094 106.245,206.513 71.096,156.267 64.406 C 147.220 63.202,127.675 62.894,127.025 63.946 M191.157 162.695 C 168.627 192.934,161.181 207.928,163.082 219.226 C 168.018 248.566,211.093 245.545,213.053 215.720 C 214.162 198.835,198.514 185.674,184.071 191.345 C 180.727 192.658,180.627 192.828,191.491 178.685 C 203.176 163.473,202.583 165.027,197.736 162.305 C 193.030 159.662,193.434 159.638,191.157 162.695 M119.321 163.284 C 111.277 164.694,105.840 168.910,103.458 175.584 C 101.324 181.566,101.638 182.031,107.813 182.031 C 112.231 182.031,113.281 181.799,113.281 180.821 C 113.281 171.099,131.436 169.646,135.026 179.080 C 137.970 186.815,131.959 193.750,122.310 193.750 C 120.395 193.750,120.313 193.938,120.313 198.328 L 120.313 202.906 124.556 203.344 C 135.016 204.424,140.877 213.900,136.402 222.500 C 131.230 232.441,112.880 231.364,111.226 221.022 L 110.738 217.969 104.878 217.969 L 99.019 217.969 99.549 221.282 C 102.026 236.774,121.403 244.428,137.550 236.293 C 151.701 229.163,152.751 207.722,139.294 200.692 C 135.650 198.789,135.435 198.537,137.098 198.119 C 147.013 195.631,150.298 178.762,142.615 169.786 C 138.000 164.394,128.351 161.701,119.321 163.284 M295.630 171.832 C 300.617 176.819,297.804 185.887,290.866 187.189 C 281.121 189.017,276.158 175.539,284.620 170.230 C 288.117 168.035,292.467 168.668,295.630 171.832 M273.242 174.250 C 275.439 175.031,275.781 175.515,275.781 177.836 C 275.781 183.887,280.074 189.117,286.436 190.819 C 290.632 191.941,291.854 195.116,291.127 203.006 C 288.635 230.028,253.285 237.625,240.575 213.870 C 228.842 191.939,250.189 166.049,273.242 174.250 M192.142 200.768 C 202.780 203.819,204.806 221.456,195.190 227.304 C 186.799 232.407,175.976 227.742,174.578 218.420 C 172.715 206.000,181.078 197.595,192.142 200.768 " stroke="none" fill="#1976D2" fill-rule="evenodd"></path></g></svg>