<svg width="1794" height="1932" viewBox="0 0 1794 1932" xmlns="http://www.w3.org/2000/svg"><link xmlns="" type="text/css" id="dark-mode" rel="stylesheet" href=""/><path d="M460.362 1826.825l-337.095-227.68a48 48 0 0 0-26.867-8.224H0V.79h131.595a48 48 0 0 1 27.382 8.576l899.975 625.07a24 24 0 0 0 25.69 1.074l98.552-56.893a24 24 0 0 1 25.814 1.16L1691.29 919.25A48 48 0 0 0 1718.92 928h74.364v1003.497h-64.006a48 48 0 0 1-27.426-8.607l-669.642-466.21a24 24 0 0 0-27.674.176l-516.778 369.602a24 24 0 0 1-27.395.367z" fill="#F5F6F7" fill-rule="nonzero" Googl="true"/></svg>